# xmcd
#
# Track frame offsets: 
#        150
#        12392
#        30252
#        46845
#        69230
#        90057
#        99890
#        116475
#        130115
#        155387
#        173665
#        191584
#        205285
#
# Disc length: 3128 seconds
#
# Revision: 0
# Processed by: cddbd v1.5.2PL0 Copyright (c) Steve Scherf et al.
# Submitted via: ExactAudioCopy v0.99pb5
#
DISCID=8f0c360d
DTITLE=Hard Luck Blues Band - World of Trouble
DYEAR=1995
DGENRE=Blues
TTITLE0=I'm a Rattlesnaking'Daddy
TTITLE1=You was wrong
TTITLE2=Let's do the thing
TTITLE3=Pull yourself together
TTITLE4=I'm so sorry
TTITLE5=Buddy Bolden
TTITLE6=Hot time in the old town tonigt
TTITLE7=Baby how come
TTITLE8=Bobby Sox Blues
TTITLE9=One more kiss
TTITLE10=Howlin' for my darling
TTITLE11=It's to late brother
TTITLE12=Sweet Talkin' Child
EXTD=
EXTT0=
EXTT1=
EXTT2=
EXTT3=
EXTT4=
EXTT5=
EXTT6=
EXTT7=
EXTT8=
EXTT9=
EXTT10=
EXTT11=
EXTT12=
PLAYORDER=
